<?xml version="1.0" standalone="no"?>
<!DOCTYPE svg PUBLIC "-//W3C//DTD SVG 20010904//EN"
 "http://www.w3.org/TR/2001/REC-SVG-20010904/DTD/svg10.dtd">
<svg version="1.0" xmlns="http://www.w3.org/2000/svg"
 width="1120.000000pt" height="1120.000000pt" viewBox="0 0 1120.000000 1120.000000"
 preserveAspectRatio="xMidYMid meet">

<g transform="translate(0.000000,1120.000000) scale(0.100000,-0.100000)"
fill="#000000" stroke="none">
<path d="M5500 9573 c-475 -33 -737 -80 -1108 -203 -558 -184 -959 -424 -1424
-854 -283 -261 -550 -589 -725 -891 -100 -172 -245 -488 -312 -679 -56 -159
-135 -508 -160 -706 -86 -682 -79 -1116 29 -1660 109 -546 280 -946 608 -1419
189 -272 460 -546 757 -766 435 -323 896 -557 1380 -699 274 -81 392 -103 710
-131 422 -37 987 6 1335 102 538 147 1031 402 1491 770 152 122 455 419 577
567 94 114 246 331 321 460 172 294 375 765 441 1025 48 189 85 394 107 584
21 192 24 724 5 897 -79 700 -294 1296 -679 1883 -316 481 -789 907 -1388
1249 -509 291 -902 420 -1405 463 -155 13 -432 17 -560 8z m193 -755 c7 -21
-4 -38 -24 -38 -14 0 -19 7 -19 25 0 18 5 25 19 25 11 0 21 -6 24 -12z m725
-100 c7 -7 12 -24 12 -38 0 -14 -5 -31 -12 -38 -7 -7 -24 -12 -38 -12 -14 0
-31 5 -38 12 -7 7 -12 24 -12 38 0 14 5 31 12 38 7 7 24 12 38 12 14 0 31 -5
38 -12z m-1358 -137 c0 -14 -18 -23 -30 -16 -6 4 -8 11 -5 16 8 12 35 12 35 0z
m1896 -393 c8 -27 -22 -68 -50 -68 -33 0 -60 33 -52 65 12 47 87 50 102 3z
m-2428 -26 c3 -16 -2 -22 -17 -22 -26 0 -36 17 -20 36 16 19 33 13 37 -14z
m792 -22 c0 -5 -7 -10 -15 -10 -8 0 -15 5 -15 10 0 6 7 10 15 10 8 0 15 -4 15
-10z m-1430 -32 c14 -26 13 -29 -6 -49 -20 -19 -24 -20 -50 -7 -51 24 -39 92
15 86 15 -2 31 -14 41 -30z m2590 2 c0 -5 -4 -10 -10 -10 -5 0 -10 5 -10 10 0
6 5 10 10 10 6 0 10 -4 10 -10z m-2272 -164 c5 -25 -12 -39 -37 -31 -24 7 -27
25 -9 43 17 17 42 11 46 -12z m1639 -5 c10 -21 27 -28 111 -47 193 -43 460
-137 489 -171 7 -9 13 -11 18 -4 10 17 34 13 53 -9 9 -11 54 -42 99 -68 46
-26 83 -50 83 -54 0 -12 -38 -10 -45 2 -4 6 -30 24 -58 40 -42 24 -58 28 -94
23 -39 -5 -43 -3 -52 19 -15 39 -54 59 -288 144 -103 37 -296 78 -325 68 -29
-9 -66 4 -70 24 -2 9 0 27 6 40 13 31 56 26 73 -7z m-110 -26 c2 -6 -56 -9
-165 -7 -92 2 -208 -1 -257 -7 -115 -14 -264 -39 -290 -50 -11 -5 -46 -13 -77
-19 -84 -16 -144 -45 -160 -78 -7 -16 -23 -33 -36 -39 -27 -12 -25 -3 -61
-214 l-31 -173 23 -19 22 -19 -25 3 c-21 2 -25 -3 -28 -30 -4 -38 8 -41 46
-15 34 23 215 95 307 121 92 26 205 48 286 57 67 7 110 27 93 43 -8 8 -160 59
-219 74 -83 20 -363 101 -375 108 -12 6 -10 8 8 9 22 0 153 -35 452 -121 74
-22 144 -39 155 -39 10 0 28 11 40 24 11 14 74 91 141 173 133 163 154 185
154 160 0 -9 -8 -22 -17 -29 -10 -7 -71 -80 -137 -161 -110 -138 -118 -150
-112 -181 l6 -34 98 -6 c173 -12 353 -41 471 -77 79 -24 74 -24 109 6 30 25
31 25 37 5 3 -11 14 -20 23 -21 9 -1 24 -2 32 -3 8 -2 25 -3 38 -4 13 -1 21
-6 18 -10 -3 -5 12 -16 32 -25 24 -11 42 -28 51 -49 16 -37 34 -58 49 -58 6 0
12 -4 14 -9 2 -4 55 -51 118 -102 132 -108 280 -252 280 -273 0 -38 -29 -22
-119 66 -118 117 -154 144 -277 214 -75 42 -105 54 -133 52 -41 -2 -94 24
-128 63 -85 98 -398 179 -692 179 l-124 0 -43 -47 c-24 -26 -47 -44 -50 -40
-4 4 2 17 14 30 12 13 22 26 22 30 0 22 -193 -14 -342 -63 -88 -30 -303 -140
-418 -215 -94 -61 -285 -236 -341 -313 -17 -24 -29 -32 -41 -27 -10 4 -18 12
-18 19 0 17 140 175 206 232 32 28 97 79 144 114 47 35 89 67 94 71 5 5 12 27
16 51 4 24 24 130 44 237 31 168 35 198 24 227 -7 19 -17 34 -23 34 -6 0 -65
-27 -130 -60 -66 -32 -121 -57 -124 -54 -8 8 36 34 160 95 78 39 120 65 124
79 4 13 15 20 31 20 13 0 24 5 24 10 0 6 8 5 19 -2 15 -9 30 -9 63 -1 127 33
168 46 168 55 0 5 9 6 20 3 11 -3 55 2 97 13 43 11 87 19 98 20 40 1 310 15
312 16 8 6 207 -11 210 -19z m1937 5 c20 -7 26 -17 26 -39 0 -37 -30 -57 -60
-41 -27 14 -31 67 -7 82 15 10 11 10 41 -2z m-2497 -95 c7 -20 -2 -29 -21 -22
-9 4 -13 13 -10 22 8 19 23 19 31 0z m758 -55 c3 -5 -1 -10 -9 -10 -9 0 -16 5
-16 10 0 6 4 10 9 10 6 0 13 -4 16 -10z m1120 -34 c21 -31 5 -66 -28 -66 -47
0 -63 48 -25 74 30 21 35 20 53 -8z m-1557 -3 c5 -17 -26 -29 -40 -15 -6 6 -7
15 -3 22 9 14 37 9 43 -7z m692 -53 c0 -21 -24 -28 -35 -10 -8 14 3 30 21 30
8 0 14 -9 14 -20z m-2782 -2 c27 -27 7 -78 -29 -78 -21 0 -49 26 -49 45 0 35
53 58 78 33z m2442 -63 c0 -8 -4 -15 -9 -15 -13 0 -22 16 -14 24 11 11 23 6
23 -9z m-40 -84 c0 -5 9 -7 20 -4 11 3 20 1 20 -3 0 -11 -47 -34 -55 -26 -9 9
-5 42 5 42 6 0 10 -4 10 -9z m732 -21 c-14 -12 -30 -16 -40 -12 -14 6 -13 7 6
10 12 2 22 8 22 13 0 5 8 9 18 9 14 -1 13 -4 -6 -20z m-1532 -36 c0 -31 -3
-35 -22 -32 -26 3 -35 32 -18 53 22 27 40 17 40 -21z m-902 -71 c-79 -66 -119
-107 -114 -119 3 -7 -4 -24 -14 -37 -19 -24 -22 -43 -50 -287 -22 -193 -33
-261 -44 -257 -6 3 -10 11 -8 18 2 8 6 45 9 84 2 38 8 79 13 90 8 20 31 244
30 300 l-1 30 -32 -36 c-17 -21 -57 -67 -87 -103 -30 -36 -58 -66 -62 -66 -16
0 -7 21 27 66 28 36 33 49 24 60 -20 24 -3 43 33 38 43 -7 75 25 80 81 3 38 5
40 35 40 27 0 47 13 110 73 43 40 79 68 81 62 2 -5 -11 -22 -30 -37z m2562 7
c0 -5 -4 -10 -9 -10 -6 0 -13 5 -16 10 -3 6 1 10 9 10 9 0 16 -4 16 -10z m349
-64 c33 -34 36 -35 53 -19 15 13 23 15 36 7 25 -16 27 -51 4 -63 -17 -9 -20
-28 -27 -218 -4 -114 -8 -219 -9 -231 -1 -22 8 -26 84 -49 246 -72 316 -90
324 -82 8 7 -66 143 -85 155 -13 8 -11 46 3 42 6 -2 18 -17 27 -34 39 -71 91
-150 111 -167 13 -11 19 -24 15 -36 -6 -19 42 -141 55 -141 12 0 28 -53 21
-70 -3 -8 -15 -15 -26 -15 -24 0 -33 18 -34 62 -1 18 -9 52 -18 75 -30 75 -58
93 -248 152 -94 30 -185 56 -201 58 -28 3 -29 2 -29 -42 0 -44 0 -45 31 -43
35 3 52 -20 33 -43 -15 -18 -24 -18 -44 3 -14 13 -18 14 -25 2 -16 -25 -23 0
-21 69 2 63 0 69 -21 80 l-23 11 26 0 25 1 13 223 13 223 -23 28 c-13 16 -44
48 -69 73 -25 25 -36 40 -25 35 11 -6 35 -26 54 -46z m-241 22 c2 -12 -3 -18
-15 -18 -26 0 -47 16 -38 29 10 18 49 9 53 -11z m1183 12 c30 -16 26 -77 -6
-92 -52 -24 -97 41 -58 84 18 20 36 23 64 8z m-3611 -16 c0 -9 -5 -14 -12 -12
-18 6 -21 28 -4 28 9 0 16 -7 16 -16z m-746 -55 c10 -16 12 -28 5 -48 -8 -23
-15 -27 -39 -26 -17 1 -39 10 -50 20 -18 16 -18 20 -4 46 18 36 65 40 88 8z
m490 -14 c6 -16 -3 -19 -28 -9 -9 3 -13 10 -10 15 8 14 31 11 38 -6z m3274
-12 c-4 -22 -22 -20 -26 1 -2 10 3 16 13 16 10 0 15 -7 13 -17z m-4518 -33 c0
-11 -7 -20 -15 -20 -8 0 -15 9 -15 20 0 11 7 20 15 20 8 0 15 -9 15 -20z
m4173 -36 c18 -6 11 -44 -9 -44 -17 0 -27 17 -20 35 6 17 8 17 29 9z m-2823
-44 c0 -11 -7 -20 -15 -20 -8 0 -15 9 -15 20 0 11 7 20 15 20 8 0 15 -9 15
-20z m70 -60 c0 -5 -4 -10 -10 -10 -5 0 -10 5 -10 10 0 6 5 10 10 10 6 0 10
-4 10 -10z m-542 -122 c-64 -99 -124 -200 -140 -236 -18 -39 -18 -46 -5 -66 8
-12 17 -33 19 -46 2 -21 16 -29 91 -55 l88 -30 29 33 c17 17 32 32 35 32 13 0
3 -49 -11 -54 -10 -4 -14 -14 -12 -24 4 -15 1 -18 -16 -15 -15 3 -42 -10 -81
-40 -81 -59 -284 -181 -291 -174 -5 5 129 97 141 97 10 0 175 121 175 129 0 4
-15 13 -32 19 -18 6 -60 20 -92 31 -92 32 -102 30 -130 -31 -13 -29 -31 -70
-39 -90 -9 -21 -21 -38 -26 -38 -6 0 -11 2 -11 4 0 10 31 87 54 135 14 30 26
68 26 83 0 18 10 38 25 52 14 13 25 28 25 34 0 13 90 160 137 225 35 47 69 68
41 25z m527 13 c3 -5 1 -13 -5 -16 -15 -9 -43 3 -35 15 8 13 32 13 40 1z
m2580 -47 c0 -10 -8 -20 -17 -22 -18 -3 -26 27 -11 42 12 11 28 0 28 -20z
m-2975 -64 c0 -5 -5 -10 -11 -10 -5 0 -7 5 -4 10 3 6 8 10 11 10 2 0 4 -4 4
-10z m-142 -51 c-2 -6 -8 -10 -13 -10 -5 0 -11 4 -13 10 -2 6 4 11 13 11 9 0
15 -5 13 -11z m3222 -5 l35 -14 -39 5 c-22 2 -44 9 -50 15 -14 14 11 12 54 -6z
m1100 -69 c0 -8 -7 -15 -15 -15 -8 0 -15 7 -15 15 0 8 7 15 15 15 8 0 15 -7
15 -15z m-4793 -31 c9 -23 -19 -37 -37 -18 -13 13 -13 16 0 24 21 14 30 12 37
-6z m842 -93 c12 -8 9 -21 -17 -79 -18 -38 -32 -73 -32 -77 0 -5 -29 -66 -64
-135 -35 -69 -70 -144 -77 -167 -8 -30 -18 -43 -30 -43 -10 0 -20 3 -23 8 -2
4 7 52 20 107 13 55 22 106 19 113 -3 8 -2 19 2 25 4 7 8 28 9 47 1 27 -5 40
-25 57 l-26 22 37 -11 c48 -14 74 2 131 82 43 61 51 66 76 51z m2925 -25 c24
-32 80 -138 119 -226 58 -130 114 -361 124 -510 4 -57 11 -88 20 -93 9 -6 11
-13 5 -20 -5 -7 -12 -75 -15 -152 -4 -77 -15 -193 -27 -257 -21 -124 -18 -173
9 -183 14 -6 14 -8 -2 -20 -31 -23 -23 -72 52 -297 38 -117 75 -232 81 -255 6
-23 15 -45 21 -49 6 -4 8 -20 5 -40 -6 -27 -3 -35 14 -44 30 -16 24 -62 -10
-70 -14 -4 -33 -2 -44 4 -15 9 -24 4 -60 -39 -49 -59 -169 -176 -174 -170 -5
4 58 81 140 172 25 29 49 67 53 84 5 20 16 34 32 40 23 9 25 13 19 51 -12 76
-156 499 -177 522 -11 13 -31 -12 -71 -89 -17 -33 -39 -71 -50 -85 -11 -14
-41 -63 -69 -109 -64 -111 -114 -174 -229 -295 -115 -120 -314 -280 -448 -359
-49 -29 -53 -34 -47 -62 l5 -29 -27 26 c-33 30 -53 27 -54 -10 -1 -17 -3 -21
-6 -9 -6 21 -7 21 -80 -2 -68 -22 -278 -64 -396 -80 -84 -12 -325 -15 -351 -5
-16 6 -23 34 -8 34 4 0 81 2 172 4 91 2 190 9 220 16 185 38 261 65 403 142
44 23 123 54 187 72 100 28 312 188 437 330 67 76 152 192 195 266 41 71 94
217 113 313 10 48 22 87 26 87 17 0 50 72 70 156 31 126 38 416 14 582 -31
220 -102 422 -212 605 -48 80 -32 122 21 53z m-1542 -221 c22 -82 98 -364 169
-625 71 -261 129 -483 127 -495 -3 -19 -10 -20 -126 -20 -92 0 -125 4 -131 14
-5 7 -23 73 -41 147 l-33 134 -168 0 -168 0 -10 -37 c-5 -21 -21 -85 -36 -143
-14 -57 -28 -106 -30 -109 -8 -7 -243 -7 -250 1 -6 5 25 126 154 608 10 36 53
198 96 360 43 162 83 301 88 308 7 9 48 12 165 10 l156 -3 38 -150z m751 148
c3 -5 6 -294 8 -643 l4 -635 -112 -3 -113 -3 0 639 c0 351 3 642 7 645 9 10
201 9 206 0z m1250 -99 c3 -3 3 -12 0 -20 -4 -11 -9 -12 -19 -3 -8 6 -11 15
-8 20 6 10 18 12 27 3z m-4043 -44 c0 -5 -5 -10 -11 -10 -5 0 -7 5 -4 10 3 6
8 10 11 10 2 0 4 -4 4 -10z m4398 -17 c-5 -26 -38 -29 -38 -4 0 15 6 21 21 21
14 0 19 -5 17 -17z m-554 -9 c23 -9 20 -34 -4 -34 -13 0 -20 7 -20 20 0 22 1
23 24 14z m-4124 -109 c0 -8 -4 -15 -9 -15 -13 0 -22 16 -14 24 11 11 23 6 23
-9z m-249 -37 c21 -39 -40 -65 -64 -27 -15 24 -1 49 27 49 16 0 30 -8 37 -22z
m463 0 c21 -29 20 -40 -5 -71 -19 -26 -21 -26 -46 -10 -13 9 -29 28 -34 41
-20 51 54 85 85 40z m4830 6 c9 -8 16 -20 16 -25 0 -22 -22 -49 -40 -49 -22 0
-50 25 -50 45 0 7 7 21 16 29 8 9 22 16 29 16 7 0 21 -7 29 -16z m-488 -94 c3
-36 4 -63 1 -60 -10 9 -36 123 -30 133 11 18 22 -9 29 -73z m-4136 5 c0 -8 -9
-15 -20 -15 -20 0 -26 11 -13 23 12 13 33 7 33 -8z m3740 -30 c7 -9 19 -14 27
-11 9 4 12 -1 8 -17 -5 -18 4 -29 42 -58 186 -139 319 -242 322 -251 5 -15
-10 -5 -101 64 -42 32 -80 58 -83 58 -4 0 -32 22 -63 49 -31 27 -72 56 -89 65
-18 9 -33 21 -33 27 0 5 -9 20 -21 32 -27 29 -42 57 -31 57 5 0 15 -7 22 -15z
m156 -46 c3 -6 2 -15 -2 -19 -12 -12 -38 5 -30 19 9 14 23 14 32 0z m-156 -63
c-17 -22 -32 -9 -19 16 8 14 14 17 22 9 7 -7 6 -15 -3 -25z m-3476 -303 c2
-233 4 -255 30 -368 15 -66 45 -165 67 -221 44 -114 46 -124 20 -124 -23 0
-89 163 -120 295 -27 118 -51 307 -51 398 0 145 26 294 48 273 2 -3 5 -117 6
-253z m-839 207 c11 -17 -15 -50 -39 -50 -30 0 -49 23 -41 49 10 31 61 32 80
1z m561 9 c9 -16 -12 -33 -31 -25 -14 5 -15 9 -5 21 15 18 26 19 36 4z m4192
-81 c7 -51 12 -97 12 -103 1 -5 -4 -55 -9 -110 -6 -55 -10 -106 -11 -112 0 -7
-3 -13 -7 -13 -5 0 -6 39 -4 87 2 48 -2 103 -9 125 -8 30 -8 43 0 53 7 9 10
43 8 90 -2 41 0 75 3 75 3 0 11 -42 17 -92z m-363 2 c3 -5 1 -10 -4 -10 -6 0
-11 5 -11 10 0 6 2 10 4 10 3 0 8 -4 11 -10z m-4076 -57 c0 -16 -4 -37 -9 -48
-7 -19 -9 -18 -19 8 -8 20 -8 34 -1 48 15 28 30 23 29 -8z m116 -23 c3 -5 1
-10 -4 -10 -6 0 -11 5 -11 10 0 6 2 10 4 10 3 0 8 -4 11 -10z m4623 -53 c2
-12 -3 -17 -17 -17 -12 0 -21 6 -21 13 0 31 32 34 38 4z m-4737 -138 c3 -64
14 -148 24 -187 17 -66 15 -104 -4 -73 -11 17 -39 194 -47 300 -6 69 -4 83 7
79 10 -3 15 -34 20 -119z m4187 102 c11 -6 10 -11 -3 -25 -23 -22 -55 -21 -55
3 0 17 9 24 40 30 3 0 11 -3 18 -8z m-4496 -56 c14 -30 -3 -55 -38 -55 -33 0
-47 31 -28 58 20 29 52 28 66 -3z m656 -84 c-2 -20 -8 -26 -28 -26 -30 0 -38
26 -15 48 22 23 47 10 43 -22z m3920 -26 c-3 -3 -9 2 -12 12 -6 14 -5 15 5 6
7 -7 10 -15 7 -18z m57 -65 c0 -22 -29 -18 -33 3 -3 14 1 18 15 15 10 -2 18
-10 18 -18z m82 -82 c-3 -7 -5 -2 -5 12 0 14 2 19 5 13 2 -7 2 -19 0 -25z
m-4307 -27 c0 -23 -23 -34 -39 -18 -19 19 -12 37 14 37 18 0 25 -5 25 -19z
m4030 -26 c0 -18 -5 -25 -19 -25 -11 0 -21 6 -24 13 -7 20 4 37 24 37 14 0 19
-7 19 -25z m266 -37 c-4 -34 -14 -78 -22 -96 -8 -19 -14 -45 -14 -58 0 -13 -5
-24 -10 -24 -7 0 -8 13 -4 38 4 20 7 52 7 70 -1 17 3 32 8 32 4 0 11 17 14 38
8 48 13 62 21 62 4 0 3 -28 0 -62z m-4136 28 c0 -16 -18 -31 -27 -22 -8 8 5
36 17 36 5 0 10 -6 10 -14z m198 -65 c-13 -48 -51 -233 -72 -356 -10 -55 -24
-124 -31 -152 -6 -29 -9 -53 -6 -53 3 0 51 -7 106 -14 118 -17 365 -39 370
-34 2 2 -23 50 -56 107 -48 82 -58 105 -49 117 16 18 26 11 59 -42 26 -39 42
-61 141 -177 20 -23 56 -67 80 -97 25 -30 59 -68 75 -85 58 -58 201 -173 255
-205 62 -37 268 -128 348 -154 50 -17 67 -38 39 -49 -39 -15 -379 140 -505
230 -40 29 -83 58 -95 64 -12 7 -24 15 -27 18 -29 35 -104 91 -116 87 -8 -3
-14 1 -14 9 0 7 -31 45 -69 84 -52 54 -75 71 -97 72 -68 3 -465 50 -473 56 -3
2 1 9 7 15 7 7 12 25 12 41 0 16 9 72 19 125 10 54 31 162 46 242 15 80 32
150 37 157 6 7 5 19 -2 33 -10 19 -10 20 8 9 16 -10 18 -17 10 -48z m-850 27
c32 -32 -8 -80 -48 -58 -21 11 -18 36 8 58 20 15 25 15 40 0z m486 -175 c18
-57 30 -103 26 -103 -12 0 -70 167 -69 198 1 32 0 34 43 -95z m4573 21 c20
-31 9 -57 -26 -62 -28 -4 -51 14 -51 42 0 49 49 62 77 20z m-1702 -3 c93 -7
-1248 -25 -1409 -19 -60 2 -91 7 -94 16 -3 9 142 12 705 11 389 -1 749 -4 798
-8z m2340 -11 c4 -6 1 -18 -6 -26 -11 -13 -14 -13 -27 0 -8 8 -11 19 -8 25 9
14 33 14 41 1z m-964 -43 c-16 -16 -26 0 -10 19 9 11 15 12 17 4 2 -6 -1 -17
-7 -23z m139 -28 c14 -26 -11 -69 -40 -69 -11 0 -27 11 -35 24 -23 34 -5 66
35 66 19 0 33 -7 40 -21z m-160 -49 c0 -14 -40 -113 -52 -128 -21 -24 -20 -3
3 67 13 40 29 71 36 71 7 0 13 -4 13 -10z m-2686 -16 c26 -10 18 -32 -11 -36
l-28 -3 -3 -102 c-3 -102 -3 -103 -27 -103 -24 0 -24 1 -27 103 l-3 102 -27 3
c-26 3 -36 20 -21 35 8 9 126 9 147 1z m143 -3 c20 -1 53 -43 53 -66 0 -12 -6
-30 -14 -41 -9 -12 -11 -23 -5 -30 5 -6 12 -32 15 -58 7 -46 6 -48 -17 -44
-18 2 -25 10 -27 33 -5 37 -19 55 -43 55 -16 0 -19 -8 -19 -44 0 -49 -13 -65
-35 -46 -12 10 -15 39 -15 125 0 66 4 115 10 117 8 2 39 2 97 -1z m219 -91
c48 -150 48 -150 20 -150 -17 0 -26 7 -30 25 -5 21 -12 25 -41 25 -29 0 -36
-4 -41 -25 -4 -18 -13 -25 -31 -25 -18 0 -24 4 -19 15 3 8 17 54 31 102 37
124 43 135 63 131 12 -2 26 -31 48 -98z m187 84 c26 -8 47 -57 47 -113 0 -93
-31 -124 -116 -119 l-49 3 0 113 c0 91 3 116 15 123 14 8 60 5 103 -7z m217 6
c0 -5 1 -13 3 -17 1 -5 -18 -10 -43 -13 -42 -5 -45 -7 -45 -35 0 -27 3 -30 38
-33 23 -2 37 -8 37 -17 0 -9 -14 -15 -37 -17 -35 -3 -38 -6 -41 -35 -3 -31 -2
-32 40 -35 31 -2 44 -8 46 -20 3 -16 -5 -18 -67 -18 l-71 0 0 118 c0 65 3 122
7 125 10 11 133 8 133 -3z m424 -20 c25 -24 34 -126 16 -170 -15 -37 -68 -57
-102 -39 -39 21 -47 41 -48 112 0 63 2 71 30 99 25 24 36 29 58 23 15 -3 36
-15 46 -25z m-188 -5 c14 -21 14 -30 4 -54 -10 -24 -9 -33 5 -55 36 -55 -12
-106 -100 -106 l-35 0 0 120 0 120 55 0 c47 0 57 -3 71 -25z m394 11 c0 -9
-12 -16 -27 -18 l-28 -3 -3 -102 c-2 -83 -6 -103 -17 -103 -12 0 -15 19 -15
105 l0 105 -30 0 c-20 0 -30 5 -30 15 0 12 15 15 75 15 58 0 75 -3 75 -14z
m-2870 -10 c0 -3 -4 -8 -10 -11 -5 -3 -10 -1 -10 4 0 6 5 11 10 11 6 0 10 -2
10 -4z m3970 -30 c0 -8 -5 -18 -11 -22 -14 -8 -33 11 -25 25 10 16 36 13 36
-3z m-4528 -72 c10 -21 9 -31 -3 -52 -27 -49 -91 -33 -91 23 0 55 72 77 94 29z
m650 -81 c7 -16 21 -41 33 -58 11 -16 27 -47 35 -69 11 -28 23 -42 40 -46 22
-5 25 -11 22 -41 -2 -19 -6 -36 -8 -38 -7 -7 -43 31 -50 52 -3 11 -20 43 -37
71 -62 104 -81 156 -57 156 6 0 16 -12 22 -27z m3970 5 c-7 -7 -12 -8 -12 -2
0 14 12 26 19 19 2 -3 -1 -11 -7 -17z m-3502 -18 c0 -5 -5 -12 -11 -16 -14 -8
-33 11 -25 25 7 11 36 4 36 -9z m3460 -60 c-6 -11 -13 -20 -16 -20 -2 0 0 9 6
20 6 11 13 20 16 20 2 0 0 -9 -6 -20z m-4343 -16 c3 -8 -1 -23 -10 -31 -20
-21 -47 -2 -40 27 6 24 41 27 50 4z m4293 -74 c-6 -12 -14 -19 -17 -17 -2 3 1
15 7 27 6 12 14 19 17 17 2 -3 -1 -15 -7 -27z m-261 6 c9 -10 8 -16 -4 -26
-19 -16 -41 1 -32 24 8 20 21 20 36 2z m-3436 -161 c37 -58 164 -198 188 -207
24 -9 41 -50 25 -60 -18 -12 -36 -9 -36 5 0 8 -22 39 -49 70 -100 115 -185
237 -164 237 5 0 21 -20 36 -45z m3371 29 c13 -5 14 -9 5 -20 -17 -21 -39 -17
-39 6 0 21 8 24 34 14z m-3234 -60 c0 -8 -9 -14 -20 -14 -19 0 -27 19 -14 33
10 9 34 -4 34 -19z m4225 0 c34 -35 1 -83 -48 -70 -21 5 -27 12 -27 34 0 49
42 69 75 36z m-3923 -46 c-12 -12 -35 -1 -27 12 3 5 13 6 21 3 10 -4 12 -9 6
-15z m2746 -81 c4 -21 -25 -34 -40 -19 -8 8 -8 16 2 27 16 19 34 15 38 -8z
m-250 -151 c-2 -13 -12 -22 -25 -24 -19 -3 -23 1 -23 26 0 26 3 29 26 24 19
-3 24 -10 22 -26z m-2246 9 c0 -5 -5 -11 -11 -13 -6 -2 -11 4 -11 13 0 9 5 15
11 13 6 -2 11 -8 11 -13z m2587 -68 c-64 -53 -160 -118 -170 -115 -6 2 7 17
29 33 22 17 68 54 103 84 42 35 65 49 68 40 2 -7 -11 -26 -30 -42z m-3428 14
c23 -19 23 -21 9 -48 -28 -50 -90 -39 -90 16 0 51 39 66 81 32z m495 -18 c-7
-7 -26 7 -26 19 0 6 6 6 15 -2 9 -7 13 -15 11 -17z m1149 -38 l0 -40 -44 0
c-41 0 -45 2 -52 29 -11 42 5 58 55 54 41 -3 41 -3 41 -43z m-697 -18 c2 -10
-3 -17 -12 -17 -10 0 -16 9 -16 21 0 24 23 21 28 -4z m412 -25 c-60 -30 -74
-41 -72 -57 3 -19 3 -19 -10 -2 -13 17 -24 13 -186 -59 -94 -43 -172 -80 -172
-84 0 -3 37 -23 83 -44 95 -45 95 -45 205 -82 45 -16 82 -32 82 -36 0 -5 -1
-8 -3 -8 -10 0 -180 61 -217 79 -51 23 -86 27 -93 9 -3 -8 -6 -6 -6 4 -1 10
-19 29 -41 43 l-41 26 -62 -26 c-82 -35 -97 -39 -97 -28 0 5 15 14 33 21 18 6
42 19 52 27 19 15 18 17 -30 60 -27 25 -55 45 -63 45 -22 0 -162 114 -162 132
0 4 24 -8 53 -27 28 -20 64 -43 79 -53 16 -9 28 -22 28 -27 0 -6 12 -16 28
-23 15 -7 39 -20 54 -29 25 -16 28 -16 46 0 25 23 29 22 36 -9 6 -23 11 -26
35 -21 41 9 324 135 336 151 6 7 15 11 21 9 6 -2 36 7 65 21 86 39 102 29 19
-12z m2168 1 c4 -38 -19 -49 -54 -27 -33 22 -32 52 4 57 41 6 47 3 50 -30z
m-2778 -12 c0 -4 -6 -16 -14 -26 -13 -18 -14 -18 -20 3 -4 12 -5 26 -1 31 6
11 35 4 35 -8z m2094 -20 c3 -4 -1 -16 -8 -26 -16 -23 -46 -13 -46 15 0 15 7
20 24 20 14 0 27 -4 30 -9z m-1535 -91 c0 -10 -3 -8 -9 5 -12 27 -12 43 0 25
5 -8 9 -22 9 -30z m919 28 c-6 -18 -28 -21 -28 -4 0 9 7 16 16 16 9 0 14 -5
12 -12z m-696 -30 c-15 -15 -26 -4 -18 18 5 13 9 15 18 6 9 -9 9 -15 0 -24z
m1578 12 c0 -5 -7 -10 -16 -10 -8 0 -12 5 -9 10 3 6 10 10 16 10 5 0 9 -4 9
-10z m-52 -42 c-3 -7 -20 -18 -39 -25 l-34 -14 28 26 c30 27 51 33 45 13z
m-898 -17 c0 -12 -31 -43 -37 -37 -7 7 16 46 27 46 6 0 10 -4 10 -9z m-930
-27 c0 -8 -7 -14 -15 -14 -15 0 -21 21 -9 33 10 9 24 -2 24 -19z m1120 6 c0
-5 -4 -10 -10 -10 -5 0 -10 5 -10 10 0 6 5 10 10 10 6 0 10 -4 10 -10z m620
-8 c0 -20 -56 -53 -173 -100 -130 -53 -147 -58 -147 -43 0 4 28 19 62 31 90
33 163 75 162 93 -1 12 2 13 16 5 13 -8 23 -7 41 5 26 19 39 21 39 9z m479 -6
c10 -11 8 -16 -8 -21 -26 -8 -42 1 -34 20 7 19 27 19 42 1z m-1219 -17 c0 -5
-7 -9 -15 -9 -15 0 -20 12 -9 23 8 8 24 -1 24 -14z m1875 11 c11 -17 -5 -32
-21 -19 -8 6 -14 15 -14 20 0 12 27 11 35 -1z m-2017 -13 c13 -15 -1 -42 -17
-33 -13 8 -15 46 -2 46 5 0 13 -6 19 -13z m-1896 -22 c8 -19 8 -28 -2 -40 -23
-28 -70 -12 -70 25 0 42 54 54 72 15z m2188 -21 c0 -8 -4 -12 -10 -9 -5 3 -10
10 -10 16 0 5 5 9 10 9 6 0 10 -7 10 -16z m-670 -19 c0 -8 -7 -15 -15 -15 -8
0 -15 7 -15 15 0 8 7 15 15 15 8 0 15 -7 15 -15z m1245 5 c3 -5 1 -10 -4 -10
-6 0 -11 5 -11 10 0 6 2 10 4 10 3 0 8 -4 11 -10z m-2317 -41 c3 -39 -14 -55
-49 -44 -22 7 -27 70 -6 79 32 13 52 1 55 -35z m1947 -49 c-11 -5 -27 -9 -35
-9 -9 0 -8 4 5 9 11 5 27 9 35 9 9 0 8 -4 -5 -9z m-1162 -18 c15 -16 15 -20 1
-40 -21 -31 -62 -29 -70 3 -12 48 36 73 69 37z m152 -42 l40 -10 -48 5 c-27 3
-56 9 -65 15 -19 11 -6 10 73 -10z m718 5 c18 -13 17 -14 -8 -31 -20 -13 -29
-14 -38 -5 -6 6 -27 12 -46 13 l-36 1 32 4 c17 2 37 11 43 19 15 17 30 17 53
-1z m-583 -26 c11 -7 1 -8 -35 -3 -27 4 -52 8 -54 10 -10 9 76 3 89 -7z m428
-3 c2 -2 -36 -7 -85 -11 -49 -3 -101 -13 -116 -21 -26 -14 -30 -14 -46 0 -10
9 -37 16 -62 17 -79 2 -101 16 -25 17 37 0 70 3 72 5 5 5 256 -2 262 -7z m525
-40 c6 -15 -1 -26 -15 -26 -4 0 -8 9 -8 20 0 23 15 27 23 6z m-1790 -241 c8
-18 -11 -31 -25 -17 -11 11 -3 32 12 32 4 0 10 -7 13 -15z m2717 -55 c25 -25
25 -41 -1 -74 -23 -30 -45 -33 -77 -10 -44 31 -16 104 40 104 10 0 27 -9 38
-20z m-1969 0 c34 -19 19 -80 -20 -80 -23 0 -50 30 -44 48 5 15 31 42 41 42 2
0 12 -5 23 -10z m-341 -174 c34 -42 -20 -91 -62 -57 -20 16 -21 22 -10 45 13
29 52 36 72 12z m1000 -51 c0 -8 -4 -15 -10 -15 -5 0 -10 7 -10 15 0 8 5 15
10 15 6 0 10 -7 10 -15z m374 -301 c26 -25 20 -72 -9 -86 -37 -17 -75 3 -75
38 0 53 51 82 84 48z"/>
<path d="M5257 6278 c-2 -13 -25 -115 -50 -228 -25 -113 -48 -219 -52 -236 -6
-30 -4 -31 32 -38 56 -9 191 -7 197 2 3 5 -10 78 -30 163 -19 85 -45 200 -57
257 -22 103 -31 120 -40 80z"/>
<path d="M5030 4876 c0 -28 4 -36 18 -36 28 0 44 16 40 41 -2 18 -10 25 -30
27 -26 3 -28 1 -28 -32z"/>
<path d="M5242 4849 c-10 -38 -7 -49 14 -49 16 0 19 46 5 69 -7 11 -12 6 -19
-20z"/>
<path d="M5427 4913 c-11 -11 -8 -161 3 -168 6 -4 22 1 35 9 22 14 25 24 25
76 0 40 -5 64 -16 74 -16 17 -36 21 -47 9z"/>
<path d="M6056 4917 c-24 -18 -20 -155 7 -171 12 -8 22 -8 35 0 25 16 30 145
7 168 -20 19 -26 20 -49 3z"/>
<path d="M5866 4923 c-12 -13 -6 -64 9 -69 21 -8 47 15 43 39 -3 20 -41 41
-52 30z"/>
<path d="M5860 4786 c0 -39 11 -50 39 -41 44 14 36 75 -10 75 -26 0 -29 -3
-29 -34z"/>
</g>
</svg>
